<svg id="visual" viewBox="0 0 900 600" width="900" height="600" xmlns="http://www.w3.org/2000/svg" xmlns:xlink="http://www.w3.org/1999/xlink" version="1.1"><rect x="0" y="0" width="900" height="600" fill="#000000"></rect><defs><linearGradient id="grad1_0" x1="33.3%" y1="0%" x2="100%" y2="100%"><stop offset="20%" stop-color="#000349" stop-opacity="1"></stop><stop offset="80%" stop-color="#000349" stop-opacity="1"></stop></linearGradient></defs><defs><linearGradient id="grad1_1" x1="33.3%" y1="0%" x2="100%" y2="100%"><stop offset="20%" stop-color="#000349" stop-opacity="1"></stop><stop offset="80%" stop-color="#000043" stop-opacity="1"></stop></linearGradient></defs><defs><linearGradient id="grad1_2" x1="33.3%" y1="0%" x2="100%" y2="100%"><stop offset="20%" stop-color="#000000" stop-opacity="1"></stop><stop offset="80%" stop-color="#000043" stop-opacity="1"></stop></linearGradient></defs><defs><linearGradient id="grad2_0" x1="0%" y1="0%" x2="66.7%" y2="100%"><stop offset="20%" stop-color="#000349" stop-opacity="1"></stop><stop offset="80%" stop-color="#000349" stop-opacity="1"></stop></linearGradient></defs><defs><linearGradient id="grad2_1" x1="0%" y1="0%" x2="66.7%" y2="100%"><stop offset="20%" stop-color="#000043" stop-opacity="1"></stop><stop offset="80%" stop-color="#000349" stop-opacity="1"></stop></linearGradient></defs><defs><linearGradient id="grad2_2" x1="0%" y1="0%" x2="66.7%" y2="100%"><stop offset="20%" stop-color="#000043" stop-opacity="1"></stop><stop offset="80%" stop-color="#000000" stop-opacity="1"></stop></linearGradient></defs><g transform="translate(900, 0)"><path d="M0 459.7C-52.4 425.3 -104.8 390.9 -150 362.2C-195.2 333.4 -233.3 310.2 -282.8 282.8C-332.4 255.4 -393.3 223.8 -424.7 175.9C-456.1 128.1 -457.9 64 -459.7 0L0 0Z" fill="#000040"></path><path d="M0 306.5C-34.9 283.5 -69.9 260.6 -100 241.4C-130.2 222.3 -155.5 206.8 -188.6 188.6C-221.6 170.3 -262.2 149.2 -283.1 117.3C-304.1 85.4 -305.3 42.7 -306.5 0L0 0Z" fill="#000046"></path><path d="M0 153.2C-17.5 141.8 -34.9 130.3 -50 120.7C-65.1 111.1 -77.8 103.4 -94.3 94.3C-110.8 85.1 -131.1 74.6 -141.6 58.6C-152 42.7 -152.6 21.3 -153.2 0L0 0Z" fill="#000349"></path></g><g transform="translate(0, 600)"><path d="M0 -459.7C52 -415.9 104 -372.2 138.1 -333.5C172.3 -294.9 188.6 -261.4 241.1 -241.1C293.6 -220.9 382.3 -213.9 424.7 -175.9C467.2 -137.9 463.4 -69 459.7 0L0 0Z" fill="#000040"></path><path d="M0 -306.5C34.7 -277.3 69.3 -248.1 92.1 -222.3C114.9 -196.6 125.8 -174.2 160.7 -160.7C195.7 -147.3 254.8 -142.6 283.1 -117.3C311.4 -92 309 -46 306.5 0L0 0Z" fill="#000046"></path><path d="M0 -153.2C17.3 -138.6 34.7 -124.1 46 -111.2C57.4 -98.3 62.9 -87.1 80.4 -80.4C97.9 -73.6 127.4 -71.3 141.6 -58.6C155.7 -46 154.5 -23 153.2 0L0 0Z" fill="#000349"></path></g></svg>