<svg id="visual" viewBox="0 0 900 600" width="900" height="600" xmlns="http://www.w3.org/2000/svg" xmlns:xlink="http://www.w3.org/1999/xlink" version="1.1"><rect x="0" y="0" width="900" height="600" fill="#ffffff"></rect><defs><linearGradient id="grad1_0" x1="33.3%" y1="0%" x2="100%" y2="100%"><stop offset="20%" stop-color="#ffffff" stop-opacity="1"></stop><stop offset="80%" stop-color="#ffffff" stop-opacity="1"></stop></linearGradient></defs><defs><linearGradient id="grad2_0" x1="0%" y1="0%" x2="66.7%" y2="100%"><stop offset="20%" stop-color="#ffffff" stop-opacity="1"></stop><stop offset="80%" stop-color="#ffffff" stop-opacity="1"></stop></linearGradient></defs><g transform="translate(900, 0)"><path d="M0 486.7C-65.6 474.6 -131.1 462.5 -177.6 428.7C-224 394.9 -251.4 339.4 -299.1 299.1C-346.9 258.8 -415 233.6 -449.7 186.3C-484.4 138.9 -485.6 69.5 -486.7 0L0 0Z" fill="#000349"></path></g><g transform="translate(0, 600)"><path d="M0 -486.7C62.6 -473.1 125.3 -459.5 179.5 -433.3C233.7 -407.1 279.4 -368.2 326.7 -326.7C374 -285.2 422.8 -241.1 449.7 -186.3C476.6 -131.4 481.7 -65.7 486.7 0L0 0Z" fill="#000349"></path></g></svg>